<svg id="a51a323b-0bed-4e47-9e16-9c7f8994bb62" data-name="Layer 1" xmlns="http://www.w3.org/2000/svg" xmlns:xlink="http://www.w3.org/1999/xlink" viewBox="0 0 240 240"><defs><style>.ae61e9a4-027b-4e01-85af-c3a4efaf4db5{fill:#231f20;}</style><symbol id="ad46be7e-004d-4147-ae18-45a972b60917" data-name="Regal Vector Pack 05" viewBox="0 0 169.07 220.2"><path class="ae61e9a4-027b-4e01-85af-c3a4efaf4db5" d="M45.48,139.47l4.55,2s.15-.16.23-.4.11-.44.06-.46Z"/><path class="ae61e9a4-027b-4e01-85af-c3a4efaf4db5" d="M45.11,142.35l4,1.79s.14-.16.22-.4.11-.45.07-.46Z"/><path class="ae61e9a4-027b-4e01-85af-c3a4efaf4db5" d="M140.76,105.36l0,.41s.14,1.58.14,4.46c0,15.22-4.06,66.51-55.24,109.4l-.57.37-.56-.37c-51.19-42.89-55.24-94.18-55.24-109.4,0-2.88.14-4.45.14-4.46l0-.41-19.36,3.79-.34.06.11.34C38.78,199,84.17,220.12,84.24,220.15l.63,0,0,0,.3,0,.3,0,0,0,.62,0c.07,0,45.47-21.12,74.33-110.6l.1-.34-.34-.06ZM77,214.93A86.2,86.2,0,0,1,58.4,197.67l-.71-.8C42.82,180.51,26.35,155.72,12,111.25l-.46-1.38.79-.15c-.07.66,7.91,27.61,20.85,50.07,12.3,22.94,30.54,41.5,30.56,41.38,0,.12-18.07-18.63-30.08-41.64-12.71-22.61-18-49.82-17.88-50.3a.53.53,0,0,0-.05-.15l11.9-2.23c0,.64,0,3,0,3-1.25,14.83,5.69,65,54.27,108.25C80.62,217.39,79,216.34,77,214.93ZM158.3,111.25c-14.39,44.47-30.86,69.26-45.72,85.62l-.72.8a86.43,86.43,0,0,1-18.61,17.26c-2,1.41-3.61,2.46-4.84,3.2,48.57-43.22,55.51-93.42,54.26-108.25,0,0,.05-2.39,0-3l11.9,2.23a.53.53,0,0,0,0,.15c.12.48-5.17,27.69-17.88,50.3-12,23-30.06,41.76-30.07,41.64,0,.12,18.26-18.44,30.55-41.38C150.06,137.33,158,110.38,158,109.72l.8.15Z"/><path class="ae61e9a4-027b-4e01-85af-c3a4efaf4db5" d="M45.23,147.36l2.57,1.33s.12-.18.2-.42.12-.44.09-.44Z"/><path class="ae61e9a4-027b-4e01-85af-c3a4efaf4db5" d="M45.08,149.67l2.07,1.16a1.34,1.34,0,0,0,.18-.42,1.23,1.23,0,0,0,.1-.44Z"/><path class="ae61e9a4-027b-4e01-85af-c3a4efaf4db5" d="M45.51,144.92l3,1.46s.12-.18.2-.42a.83.83,0,0,0,.08-.44Z"/><path class="ae61e9a4-027b-4e01-85af-c3a4efaf4db5" d="M122.43,150.41c.08.24.16.43.19.42l2.06-1.16-2.35.3A1.55,1.55,0,0,0,122.43,150.41Z"/><path class="ae61e9a4-027b-4e01-85af-c3a4efaf4db5" d="M118.76,138.63c.12.33.25.59.31.57l5.75-2.58L118.67,138C118.61,138,118.65,138.3,118.76,138.63Z"/><path class="ae61e9a4-027b-4e01-85af-c3a4efaf4db5" d="M139.06,92.67l-.16-4.55c8,1.11,27.82-8,27.82-8,2.31-3.86-1.33-15.73-1.33-15.73-2,8.27-26.08,17.35-27.61,17.92q-.39-2.81-.87-5.55C147.47,69.26,161,49.46,161,49.46L155.3,32.78c.1,12.25-14.43,30-20,36.32-.52-2.23-1.09-4.42-1.71-6.59,8.72-16.86,13.52-46.85,13.52-46.85L140,0c-.12,15.75-6.26,32-12.23,46a155.32,155.32,0,0,0-25-40.18C111.14,20.21,120,37.1,116.56,61.41c-.39,2.73-1.84,5.85-1.7,9.07.13,2.84,2,6.19,3.68,10-4.81,7.92-11.28,15.12-17.76,17.74-8.7,3.52-6.19,5.18-6.19,5.18h0c8.57,4.65,5.46,10.57,3,13.68a11.45,11.45,0,0,0-1.45,1.63l0,0L91,123.93a12.4,12.4,0,0,1-6,2.32,12.71,12.71,0,0,1-5.53-2.17l-5.21-5.35a10,10,0,0,0-2-2.36c-2.34-3.24-4.47-8.66,3.49-13h0s2.51-1.66-6.19-5.18c-6.57-2.66-13.1-10-17.93-18,1.59-3.68,3.43-6.93,3.55-9.7.14-3.22-1.31-6.34-1.7-9.07C49.94,37.1,58.84,20.21,67.21,5.82A154.73,154.73,0,0,0,41.75,47.08C35.63,32.83,29.18,16.15,29.06,0L21.93,15.66s5,31.37,14.12,48l0,.08-.12-.15-.07.31c-.52,2-1,4-1.41,6-4.89-5.48-20.75-24.29-20.65-37.09L8.1,49.46S22,69.84,32.61,77.1l-1.24,5.26S5.71,73,3.68,64.41c0,0-3.64,11.87-1.33,15.73,0,0,19.84,9.09,27.82,8L30,92.67S7.47,96.26,0,90.77c0,0,2.39,10,8.25,14.12l22.52-4.2c0,.85,0,1.71,0,2.56,0,40.15,16.42,72.67,36.35,96l.26-.18c-7.09-12.19-14.55-26.14-14.55-44.87a74.68,74.68,0,0,1,.77-10.61c.37-2.58,1.71-5.55,1.71-8.66,0-.14,0-.29,0-.44-.18-3.83-3.48-8.45-5.07-13.79A139.89,139.89,0,0,1,45.75,102c.4-2.38.87-4.69,1.4-7l.43,5.51s11,7,17.6,8.28l.49,2.8s-14.37.78-17.13-2.93c0,0,.71,6.5,2.63,7.89,0,0,11.48.27,15.12-1.92l.86,2.24S57,123.31,52.24,122.21c0,0,3.24,4.36,6.92,5.12l10.07-6.74S55.76,137.1,55.76,152.84c0,39.55,28.74,62.1,28.74,62.1v0c.1-.07,30.9-22.66,30.9-61.9,0-15.64-14.32-32-14.32-32s0-.13,0-.35l10.05,6.72c3.68-.76,6.92-5.12,6.92-5.12-4.76,1.1-14.92-5.31-14.92-5.31l.87-2.24c3.64,2.19,15.12,1.92,15.12,1.92,1.92-1.39,2.62-7.89,2.62-7.89-2.75,3.71-17.12,2.93-17.12,2.93l.49-2.8c6.65-1.31,17.6-8.28,17.6-8.28l.35-4.53c.39,1.75.75,3.52,1.06,5.32a139.25,139.25,0,0,1-4.54,19.36c-1.6,5.34-4.9,10-5.08,13.79,0,.15,0,.3,0,.44,0,3.11,1.34,6.08,1.71,8.66a73.29,73.29,0,0,1,.78,10.61c0,18.73-7.46,32.68-14.55,44.87l.25.18A151.67,151.67,0,0,0,134,141l0,0c.24-.94.46-1.88.69-2.82a142.63,142.63,0,0,0,4.19-29.16q.21-4.17.19-8.23l21.74,4.06c5.86-4.09,8.25-14.12,8.25-14.12C161.6,96.26,139.06,92.67,139.06,92.67ZM48,120.35s7,12.74,6.48,14.18c0,0,0,.29,0,.43s-.77,4.92-1.43,7.36l-.18.89a63,63,0,0,0-.65,9.77v1.25c1.07,18,6.37,31.73,14,43.48A165.5,165.5,0,0,1,36.91,140c2.56-2.43,6.61-4,7.51-7,1.32-4.49-.44-12.39-.14-17.66.16-2.68.38-5.2.67-7.61A49.73,49.73,0,0,0,48,120.35Zm17.57-14.94s-13.52-5.87-17.89-12.6c.63-2.54,1.33-5.08,2.11-7.71C53.44,90.35,60.35,99.58,66.12,103Zm39.14,0-.55-2.38c5.66-3.39,12.42-12.33,16.12-17.63.77,2.63,1.47,5.18,2.1,7.73C117.8,99.73,104.71,105.41,104.71,105.41Zm-1.15,92.3c7.6-11.75,12.9-25.44,14-43.48V153a63,63,0,0,0-.65-9.77l-.18-.89c-.65-2.44-1.43-7.36-1.43-7.36s0-.43,0-.43c-.48-1.44,6.48-14.18,6.48-14.18a50.13,50.13,0,0,0,3.16-13.63c.34,2.71.6,5.55.78,8.6.3,5.27-1.46,13.17-.14,17.66.88,3,4.77,4.54,7.33,6.88A165.25,165.25,0,0,1,103.56,197.71Z"/><path class="ae61e9a4-027b-4e01-85af-c3a4efaf4db5" d="M121.67,147.83s0,.2.1.44.16.43.19.42l2.57-1.33Z"/><path class="ae61e9a4-027b-4e01-85af-c3a4efaf4db5" d="M119.44,140.6s0,.22.06.46.18.42.23.4,4.55-2,4.55-2Z"/><path class="ae61e9a4-027b-4e01-85af-c3a4efaf4db5" d="M121,145.52s0,.21.09.44.16.43.19.42l3-1.46Z"/><path class="ae61e9a4-027b-4e01-85af-c3a4efaf4db5" d="M50.69,139.2c.06,0,.2-.24.31-.57s.15-.62.09-.64L45,136.62Z"/><path class="ae61e9a4-027b-4e01-85af-c3a4efaf4db5" d="M120.35,143.28s0,.22.06.46.18.42.22.4l4-1.79Z"/></symbol></defs><title>Skeleton-Home-Logos</title><use width="169.07" height="220.2" transform="translate(49.15 19.49) scale(0.92)" xlink:href="#ad46be7e-004d-4147-ae18-45a972b60917"/></svg>