<svg id="fff263dd-adb2-4d22-a818-c51f943991aa" data-name="Layer 1" xmlns="http://www.w3.org/2000/svg" xmlns:xlink="http://www.w3.org/1999/xlink" viewBox="0 0 240 240"><defs><style>.adb89c63-839d-494d-946e-c7ac89d38ddf{fill:#231f20;}</style><symbol id="b9340e3c-73c9-4524-b2c2-67649563371f" data-name="Regal Vector Pack 16" viewBox="0 0 204.92 300.46"><path class="adb89c63-839d-494d-946e-c7ac89d38ddf" d="M47.65,174.48a5.65,5.65,0,0,1-1,6.34s5.29-2.33,3.71-7.21a3,3,0,0,0,.91-3.84c2.91-.14,5.92-.37,8.93-.72a12.64,12.64,0,0,1-4.61-2.59l-4.12-4L57,164a12.49,12.49,0,0,0,3.32.44c7.2,0,14.73-5.73,16.17-10.48a3.49,3.49,0,0,0-1.43-4.36,10.62,10.62,0,0,0-6-1.86,15.7,15.7,0,0,0-8.8,3.21l-5.15,4.22,2.94-6a13.84,13.84,0,0,1,4.28-5.15c-1.15.26-2.42.58-3.82,1C54,148.63,47,153.33,39.29,155.53c-3.58.3-8.6-.39-11.37-5.66-2.13-4-5.05-4.61-7.27-3.56-2.81-2.28-7.69-4.69-12.78-.13,0,0,5.11-3.06,10.36,2.36a4.85,4.85,0,0,0,.07,5.34,19.27,19.27,0,0,0,4.52,4.51,11.24,11.24,0,0,1-2.62-1.92c-3.26-3.17-6.22-2.81-8-1.14C8.81,154,3.42,153.25,0,159.17c0,0,3.91-4.5,10.58-1a4.84,4.84,0,0,0,1.71,5,20.65,20.65,0,0,0,8.85,3.66,10.8,10.8,0,0,1-2.87-.43c-4.38-1.24-6.82.47-7.59,2.8-3.59.46-8.71,2.33-8.91,9.16,0,0,1.31-5.81,8.85-5.87a4.88,4.88,0,0,0,3.91,3.64l.41.05a13.78,13.78,0,0,0,5.45.13c.5,1,7,2,11.33-2.64a8.37,8.37,0,0,1,4.68-2.83l.61,0a12.86,12.86,0,0,1,2.61,1.21A14.23,14.23,0,0,0,47.65,174.48ZM35.81,81a4.88,4.88,0,0,0-2.2,4.87c0,.13.06.27.08.41a13.84,13.84,0,0,0,1.61,5.2c-.82.8.27,7.24,6.11,9.91a8.27,8.27,0,0,1,4.16,3.53c.07.2.13.4.18.59a13.49,13.49,0,0,1-.31,2.86,14.21,14.21,0,0,0,.34,8.34,5.6,5.6,0,0,1-6.31,1.1s3.88,4.27,8,1.23a3,3,0,0,0,3.93-.36c1.23,3.15,2.62,6.4,4.15,9.57,3.38-3.27,7.91-5.58,13.76-7a71.52,71.52,0,0,1,10.92-1.64c-4.61-2.72-13.53-8.65-19.14-16.82-1.43-3.31-2.37-8.27,1.75-12.58,3.14-3.3,2.76-6.26,1.06-8,1.27-3.38,2-8.78-3.94-12.15,0,0,4.53,3.87,1.06,10.56a4.88,4.88,0,0,0-5,1.77A19.56,19.56,0,0,0,53.15,88a11.06,11.06,0,0,1,1-3.09c2-4.11.69-6.8-1.47-8,.15-3.61-.81-9-7.51-10.34,0,0,5.5,2.28,4.27,9.72a4.88,4.88,0,0,0-4.25,3.24,20.78,20.78,0,0,0-.66,9.56,11.46,11.46,0,0,1-.5-2.87C43.81,81.74,41.41,80,39,80c-1.58-3.25-5-7.51-11.51-5.53C27.44,74.45,33.36,73.84,35.81,81ZM194.34,50.89c2.21-2.22,5.83-4.18,10.58-.93,0,0-2.07-5.28-9.69-5.16,0,0,16.44-6-4.55-44.8,0,0-14.51,30.14-5.17,44.11,0,0-3.6-3.12-8.5,1.5,0,0,8.33.57,11.09,8.31,0,.17,0,.33,0,.49,0,12.43-5.58,22.19-12.62,33l-3.18,4.87c-1.08-1.65-2.15-3.27-3.19-4.87-7-10.84-12.62-20.6-12.62-33,0-.33,0-.68,0-1,2.94-7.23,10.88-7.78,10.88-7.78-4.91-4.62-8.5-1.5-8.5-1.5,9.35-14-5.17-44.11-5.17-44.11-21,38.83-4.55,44.8-4.55,44.8-7.62-.12-9.69,5.16-9.69,5.16,4.67-3.2,8.25-1.35,10.46.82-1.61-.52-4-.45-7,1.76,0,0,6.25-1.68,8.18,5.77a99.15,99.15,0,0,0,3.76,11.61c2.48,7,6.39,13.41,10.59,19.88,1.39,2.14,2.82,4.29,4.24,6.49-5.43,8.5-10.88,18-14.34,29.88a75.57,75.57,0,0,0-3.22,21c0,12.79,4.09,21.89,8.22,27.72a38,38,0,0,0,3.78,4.58c-1.66.52-3.56,2.07-5.25,5.84,0,0,5.46-1.58,9.33,2.7-.87,5-2.46,8.05-4.13,9.85a9.31,9.31,0,0,1-3.67,2.48,12.15,12.15,0,0,1-4.31.72,23,23,0,0,1-6.39-1.05c-1.95-9.27-13.94-16.78-22.9-21.43-10.45-5.41-12.57-14.18-9.12-24a48.63,48.63,0,0,0,2.5,5.09c4,6.85,10.23,3.73,10.23,3.73-6.5-1.81-5.3-5.53-4.57-15a23.27,23.27,0,0,0-.41-6.54c.35.68.69,1.31,1,1.85,4,6.86,10.22,3.73,10.22,3.73-6.5-1.8-5.29-5.53-4.57-15a23.69,23.69,0,0,0-.21-5.49c.15.28.3.55.45.8,4,6.86,10.22,3.73,10.22,3.73-6.49-1.8-5.29-5.53-4.57-15,0-.32,0-.64.05-1a7.88,7.88,0,0,0,6.44,0c-6.49-1.8-5.29-5.53-4.56-15a21.19,21.19,0,0,0-3.57-14c5-1.53,7.26-5.73,3.12-8.55a11.52,11.52,0,0,0-9.61-1.56c3.14-2.34,2.72-5.17,2.72-5.17-7.54,6.73-15.07,6.57-22.45,4.17s-14.91-2.89-14.75,2.4c0,.06,0,.1,0,.15-2.65.48-9.56,2.47-14.76,10.6,0,0,1.92-.16,3.37,2.24s-1.45,8.18,7,10.9a2.19,2.19,0,0,1,.16-3.68c2.41-1.93,7.06,2.4,13-3.69,0,0-1,3.21-2.57,3.85,0,0,4.33,6.89-1.12,13a3.13,3.13,0,0,0,.16-3.21c-1-1.6-3.37,2.4-8.5-.8,0,0-5.45,2.88-3.2,10.42a5.51,5.51,0,0,1,2.56-2.89c1.93-1,8.5,3.69,14-1.12a14,14,0,0,1,1.24-1c.64,2.36.25,6.37-9.09,7.37-13.47,1.45-34-.64-43.3,11.87,0,0,5.77-5.45,13.79-4.17a22.85,22.85,0,0,0-10.74,3.85c-5,3.53-10.74,8.18-16.36,4.49,0,0,4,6.25,13.47,1.6,0,0-13,9-21.64,2.57,0,0,4.33,10.1,18.44,5.61s18.59-4.81,25-2.73c0,0-12.19-2.88-17,6.9,0,0,8.34-6.9,16.52-1.44s-7.06,20.36-19.24,17A11.77,11.77,0,0,0,66.72,168s-6.9,16.67,8.18,18.6c0,0-10.59-6.42-.65-17,0,0-5.61,10.26,3,12.35,0,0-3.47-3.38,1.31-9-3.78,8.61,11,14.51,20.7,16.66a82.29,82.29,0,0,1,22.49,9.26c-2,5.59-1.52,10.84.46,14.72-.34.46-.72,1-1.14,1.64-3.31,3.69-9.55,12.53-6.3,24.09,4.33,15.39,2.09,22.61,2.09,22.61a15.92,15.92,0,0,0,3.84-10.7c0,.88-.21,13.66,11.87,15.83,0,0-6.89-2.89-7.22-12.83,0,0,4,11.39,18.44,5,0,0-8.57-.36-12-5.13,3.3,1.79,10.43,4.1,18.58-2.89,0,0-5.73,1.23-10.49-.56,7.55-1.71,14.3-7.1,16.9-10.66,3.39-4.63,9.94-.12,11,7.71-.61,6.16-3,17.28-12,17.63-9.71.37-14.1.94-15.66,3.94-2.65.41-10.23,2.39-9.83,11.93,0,0,1.3-6.66,9.34-7.37.76,2.22,3.68,3.65,7.51,3.52A9.27,9.27,0,0,0,144,281a4.84,4.84,0,0,0-.05,3.51c-1.75,2.31-5.48,8.73,1.11,15.22,0,0-3.84-6.15,2.37-12.36,2.25.48,5.33-.3,8.76-3.32.48-.42.93-.84,1.36-1.26a12.47,12.47,0,0,0-.4,3.5,3.89,3.89,0,0,0,2.34,3.77c.29,3.13,1.95,9.78,10.74,10.37,0,0-6.9-2.16-6.27-10.89a10.78,10.78,0,0,0,5.38-8.06c1.44-9.3,10.9-20.68,18.6-21.65a8.07,8.07,0,0,0-6.1-1.92s5.62-3.69,11.71,3.53c0,0-.48-6.74-8.34-8.5,0,0,5-1.12,6.74-3.85,0,0-8.46-8.78-2.76-26.8,2.88,2.17,4.68,6.44,4.68,6.44-1.12-19.41-15.23-17.64-15.23-17.64C180.56,209.35,186,209,186,209a31.1,31.1,0,0,0-26.76,7.81c-2.43,1.7-5.13,3.74-8.19,6.14-9.75,7.6-13.34,2-11.83-4.71a24.46,24.46,0,0,0,5.9-4.83,20.54,20.54,0,0,0,3.79-5.69,28.57,28.57,0,0,0,7.22,1,20,20,0,0,0,7-1.2,17.77,17.77,0,0,0,9.28-8.12,31.52,31.52,0,0,0,3.51-10.7c3.88-5.17,9.93-3.42,9.93-3.42-1.74-3.87-3.7-5.41-5.39-5.88a38.93,38.93,0,0,0,3.74-4.54c4.13-5.83,8.23-14.93,8.22-27.72a75.57,75.57,0,0,0-3.22-21c-3.46-11.88-8.91-21.38-14.34-29.88,1.43-2.2,2.85-4.35,4.24-6.49,4.21-6.48,8.12-12.89,10.61-19.92a99.56,99.56,0,0,0,3.74-11.57c1.92-7.45,8.18-5.77,8.18-5.77C198.42,50.18,196,50.26,194.34,50.89Zm-61.4,31.47c2.36-1.61,2.3-2.76.94-3.41,2.28.38,3.62,1.21,2.91,2.45-1.43,2.47-5.4,2.73-8.64,2.57A9.26,9.26,0,0,0,132.94,82.36Zm-33.83.16a18.65,18.65,0,0,1,10.58,0c5.29,1.77,8.5,1,8.5,1a10.64,10.64,0,0,1-8,3.84C105,87.33,108.73,82.36,99.11,82.52Zm86,44.86a70.71,70.71,0,0,1,3.05,19.78c0,11.49-3.51,19.48-7.08,24.73a35,35,0,0,1-4.1,5,8.52,8.52,0,0,0-3.29-4.5,13.73,13.73,0,0,1-1.13,6.94h-.24a13.79,13.79,0,0,1-1.12-6.94,8.38,8.38,0,0,0-3.33,4.64,34.9,34.9,0,0,1-4.24-5.11c-3.57-5.25-7.07-13.24-7.08-24.73a71.08,71.08,0,0,1,3.05-19.78c3.06-10.54,7.79-19.16,12.76-27.07C177.27,108.22,182,116.84,185.06,127.38ZM113,239.86a25.31,25.31,0,0,1-.8-10l-5-1.9c-18.28-6.76-.7-17.69,10.67-11.76.64-.87,1.25-1.6,1.76-2.18l.45-.66a20.86,20.86,0,0,1-.54-13.64,89.88,89.88,0,0,0-9.3-4.57,31.46,31.46,0,0,0-8.27,3.62,28.44,28.44,0,0,0-3.93-.34c-4.88-.87-15.69-1.53-23.81,7.31-10.82,11.78-18.13,13.67-18.13,13.67A15.89,15.89,0,0,0,67,217.24c-1.71,1-11.25,7.51-7,18.28,0,0-1.17-7.38,7.12-12.88,0,0-7.57,9.39,5.47,18.29,0,0-4.2-7.47-1.94-12.9.21,3.74,2,11,12.22,14.28,0,0-4.06-4.23-5-9.22,5.41,5.53,13.55,8.43,17.95,8.77,5.71.45,5.32,8.39-.77,13.42-5.56,2.73-16.25,6.58-21.29-.91-5.42-8.06-8.21-11.5-11.59-11.24-1.74-2-7.42-7.45-15.32-2.1,0,0,6.36-2.39,11.18,4.07-1.48,1.82-1.17,5.05,1,8.24a9.18,9.18,0,0,0-4.83-.8,4.87,4.87,0,0,0-3,1.8c-2.88-.28-10.31-.07-12.37,9,0,0,3.22-6.5,11.77-4.49.77,2.17,3.06,4.37,7.43,5.7.61.19,1.2.35,1.79.5a12.47,12.47,0,0,0-3.19,1.5,3.87,3.87,0,0,0-2,4c-2.51,1.9-7.3,6.81-3.18,14.6,0,0-1.79-7,6-11.07a10.74,10.74,0,0,0,9.68.34c8.67-3.67,23.33-1.6,28.19,4.43a8,8,0,0,0-1.56-6.19s6.08,2.83,3.15,11.81c0,0,5.48-3.95,2.84-11.56,0,0,3.57,3.64,6.82,3.7,0,0,1-4,5.45-8.2a6.9,6.9,0,0,1,.54,2.76,29.62,29.62,0,0,0,3.09-16.74A64.91,64.91,0,0,0,113,239.86Zm-25.09-133c9.14-4.09,14.19-3,14.19-3-7.57-2.29-15,1.68-22.6,3.49s-10.71-2.29-10.71-2.29C71.41,111,78.75,111,87.88,106.9Z"/></symbol></defs><title>Skeleton-Home-Logos</title><use width="204.92" height="300.46" transform="translate(48.18 19.49) scale(0.7)" xlink:href="#b9340e3c-73c9-4524-b2c2-67649563371f"/></svg>